#!OML:ASF E:/inclinewalkrobotboard/Project1/Captureday1/Session1/subject1.ASF
:FULLY-SPECIFIED
:DEGREES
51
root 0 0 0 1.1050779877828953 -3.7052638164890213 1.8136657902307782
lowerback 11.910292585554707 0.8625176361082966 -0.02867224577036695
upperback -4.225276486791026 1.0970326322264028 -0.5453982126434316
thorax -11.288682458522986 0.5010454272108805 -0.807309525031811
lowerneck -5.8158436445645645 1.475169829449068 4.567951148507151
upperneck 18.087730227488073 2.9310816463312754 -8.332593087604653
head 6.6133960237389395 1.0653707507102999 -3.2226184968252904
rclavicle 1.4576293321065433E-15 -1.2114643205966981E-15
rhumerus 19.41528623878481 14.033055782142018 -48.37713363775027
rradius 71.74127091218038
rwrist 26.66561190044257
rhand -34.61569545011456 -56.258246782053874
rfingers 7.125020000000028
rthumb -7.757727802739536 -86.18940622734614
lclavicle 1.250775393168542E-15 -1.8929256381185176E-15
lhumerus 20.742388801297437 -12.308379406745358 44.86710679790865
lradius 69.75505953094869
lwrist -22.66579339643798
lhand -44.48933387494221 -69.25593373072334
lfingers 7.12502000000002
lthumb -17.316448295173505 -39.97955454377343
rfemur -24.645072843317436 -2.0970457711751873 17.181909330218808
rtibia 53.8366843443024
rfoot -29.09577285097616 -17.029456315554583
rtoes -18.31820994091761
lfemur -26.245062604487966 2.519477855618607 -18.018307031874226
ltibia 54.199981209871936
lfoot -31.063298855717303 -3.4473422196644514
ltoes -20.156656571725264
52
root 0 0 0 0.3685173072653941 -3.2770562242031707 -0.33611298896113995
lowerback 11.333056423057528 0.9344292548648374 1.103627795425746
upperback -2.8343730637862765 1.3794310290575678 0.19836362048168238
thorax -9.386004685507185 0.6299402252946766 -0.6791594075572762
lowerneck -9.78737223648572 -0.08274124919865222 2.4225277299792007
upperneck 19.20714289497281 0.5610900951434807 -5.1749179425836385
head 7.666419168948586 0.034743478788622995 -2.1036391012797218
rclavicle -1.8658857526858545E-15 -7.013284634913402E-16
rhumerus 5.158254177130047 4.670020372519129 -56.81820696168532
rradius 58.507865110501434
rwrist 20.04464372522224
rhand -28.703121918909222 -31.88370739530546
rfingers 7.125019999999955
rthumb -2.045413522589185 -61.62330827218426
lclavicle -2.7763866054348607E-15 2.669081551792778E-16
lhumerus 3.3939004400816533 -7.181573332227389 56.49281966657519
lradius 55.87045499181754
lwrist -14.398296981831626
lhand -38.81425386369995 -40.47479443941389
lfingers 7.125019999999952
lthumb -11.799773737007419 -10.935442987861277
rfemur -14.236116498600499 0.31602980998571006 21.89973079294915
rtibia 49.53555829164524
rfoot -23.86032972700152 -12.772644587006788
rtoes -11.797982384295139
lfemur -22.668175530370238 1.7419138446859082 -17.48987026384862
ltibia 51.468316736585734
lfoot -22.948198915117104 -3.9678759150077134
ltoes -14.910753955925825
53
root 0 0 0 1.1955491186976885 -3.6300893502234164 1.8026183973878367
lowerback 11.907931930042555 0.8734585440026971 -0.04464549378449126
upperback -4.274415420976945 1.1066756821959938 -0.5601926470280565
thorax -11.342753722213306 0.5064895477234751 -0.8178676954535034
lowerneck -6.13820888493 1.5206254224614537 4.502249874146366
upperneck 18.27100413568163 2.9807567984355057 -8.158574136617595
head 6.726493791073018 1.088156706916776 -3.151273815817469
rclavicle 2.1195151382388557E-15 -1.6046959962190007E-15
rhumerus 19.24190225928557 13.985019401905314 -48.609723965407134
rradius 71.58127176139615
rwrist 26.450371387997993
rhand -34.447250866011004 -55.74353285262812
rfingers 7.125020000000024
rthumb -7.5897536861865955 -85.66424866311425
lclavicle 1.6485747852690927E-15 -2.5753655366319137E-15
lhumerus 20.347799810395728 -12.211090616785402 45.0506928167016
lradius 69.45376039188227
lwrist -22.488892181472515
lhand -44.31372418205217 -68.4124656812176
lfingers 7.125020000000015
lthumb -17.146705480669976 -39.16082756740575
rfemur -24.57362377592731 -2.0480121018786517 17.17307650060108
rtibia 53.79340782114564
rfoot -28.709393245405934 -16.8930038876019
rtoes -18.198327038001196
lfemur -26.285370953518004 2.4838034451179167 -18.008233276864175
ltibia 54.184015558028385
lfoot -30.937572663945318 -3.5090555581438183
ltoes -19.897143168225163
54
root 0 0 0 1.1977607521551508 -3.640731278018139 1.8048582850816477
lowerback 11.907797570600454 0.8736974203901201 -0.045372935120200436
upperback -4.278631563778479 1.1064992351425254 -0.5605947875955124
thorax -11.347269520598438 0.5064395972022235 -0.8180566891262888
lowerneck -6.13194679705777 1.5279504037070768 4.5083781024906475
upperneck 18.270089831452566 2.992061512156914 -8.168444186617824
head 6.724916569257399 1.0930672804571062 -3.1542193133731087
rclavicle 1.1959719231576535E-15 -1.1112354498777277E-15
rhumerus 19.315171274888264 13.941816252591366 -48.43375616898788
rradius 71.67696857237864
rwrist 26.664268031976494
rhand -34.71583529270941 -56.356583973007574
rfingers 7.125020000000027
rthumb -7.854027415661243 -86.28175870478066
lclavicle 1.066869610074098E-15 -1.7800552416280906E-15
lhumerus 20.684413169905575 -12.237352823383393 44.93021994194042
lradius 69.69939285986123
lwrist -22.652836300390312
lhand -44.50501061935605 -69.38374027775276
lfingers 7.125020000000021
lthumb -17.330875335033088 -40.10408640857011
rfemur -24.64326637794734 -2.0895985422040937 17.17901468647755
rtibia 53.83391210059204
rfoot -29.03224153556711 -17.01316795142138
rtoes -18.292910836807355
lfemur -26.279705543722528 2.502795645163296 -18.019163718395497
ltibia 54.19016989236291
lfoot -31.049523592579053 -3.470640056580967
ltoes -20.01597138491416
55
root 0 0 0 1.2065681786306288 -3.6344642641056457 1.8041500119356442
lowerback 11.908470348238305 0.8747753145336108 -0.04670399567128136
upperback -4.282854911643149 1.1074657200882638 -0.561888409450636
thorax -11.352406692410568 0.5069858660874538 -0.8190423990245699
lowerneck -6.160347406472871 1.5324228361242291 4.503328032411815
upperneck 18.285785309666093 2.9971582172048663 -8.154709728441903
head 6.734736647294015 1.095356449054453 -3.1484917346845407
rclavicle 1.2669102563982996E-15 -1.153899762278585E-15
rhumerus 19.29850810088194 13.919729696761095 -48.44053767025963
rradius 71.67181127093312
rwrist 26.681161888875856
rhand -34.76997848916961 -56.44011169222258
rfingers 7.125020000000027
rthumb -7.90710367777717 -86.3635145504359
lclavicle 1.147774027605889E-15 -1.7940014686096E-15
lhumerus 20.701248008242672 -12.223678670326333 44.94313770961164
lradius 69.70611579346757
lwrist -22.655562413784523
lhand -44.53033645393978 -69.53349984701704
lfingers 7.125020000000021
lthumb -17.35615772295577 -40.25773084543812
rfemur -24.644942089472757 -2.0929997331778734 17.18100757946018
rtibia 53.82835792938342
rfoot -29.064794930064302 -17.02822996013722
rtoes -18.299738672523674
lfemur -26.286717889720546 2.4973215310055186 -18.020402985968527
ltibia 54.18900097082455
lfoot -31.07007645678346 -3.4697282134131653
ltoes -20.002991760289913
56
root 0 0 0 1.2015608551336316 -3.637956106061747 1.8045822118348114
lowerback 11.90868337022893 0.8741986633858649 -0.04568950438266545
upperback -4.27990247333981 1.1069977013273802 -0.5610503094214911
thorax -11.349205711839154 0.5067149947813346 -0.8185093284093241
lowerneck -6.142853835393352 1.5295387104707352 4.506713564949853
upperneck 18.275656210720335 2.9938292749587347 -8.16392871343011
head 6.728554392656286 1.0938413190218506 -3.152328550038661
rclavicle 1.1908003718954127E-15 -1.2022488133014543E-15
rhumerus 19.29737776252601 13.911984955616685 -48.42899118764221
rradius 71.67416068851944
rwrist 26.695773375728752
rhand -34.78434536020474 -56.47688418692748
rfingers 7.125020000000027
rthumb -7.921196473894819 -86.40103963332882
lclavicle 1.0590779084893781E-15 -1.8543969788349807E-15
lhumerus 20.71572602053251 -12.22703386559662 44.943377687933676
lradius 69.71708657841725
lwrist -22.656472681296194
lhand -44.541230130313984 -69.58096938642082
lfingers 7.125020000000021
lthumb -17.36681622070176 -40.303216008346396
rfemur -24.642512935674443 -2.0945077498424527 17.180406805395656
rtibia 53.82248154405341
rfoot -29.07885820330222 -17.033683786515034
rtoes -18.310306151691634
lfemur -26.286845621480502 2.496773714155344 -18.02003308596154
ltibia 54.19593270161562
lfoot -31.07232941714954 -3.4710363112648115
ltoes -20.008594234120284
57
root 0 0 0 1.2022931917947202 -3.6373737784772913 1.8044978549220212
lowerback 11.90873170792674 0.8742864078511475 -0.04577062333385434
upperback -4.280227910036361 1.1070813658222907 -0.5611524358742761
thorax -11.34959924842553 0.5067606063495942 -0.8186009779663233
lowerneck -6.145115967811705 1.5298412487037303 4.506281773738154
upperneck 18.276814974859132 2.994151800667888 -8.16277897956215
head 6.729306960817677 1.0939885164048335 -3.1518584008307258
rclavicle 1.160865983641169E-15 -1.2114060850782463E-15
rhumerus 19.29252597757963 13.906697201097572 -48.43081455441844
rradius 71.67182092738129
rwrist 26.69740800028162
rhand -34.793353365248166 -56.48951311412007
rfingers 7.125020000000027
rthumb -7.929970662666621 -86.41377633312004
lclavicle 1.0460534917009364E-15 -1.8632699861700618E-15
lhumerus 20.716561639785375 -12.22437191683664 44.94585443220439
lradius 69.71723912941061
lwrist -22.656210669578485
lhand -44.54423689681026 -69.5986478607789
lfingers 7.125020000000021
lthumb -17.369788156458384 -40.32076332285189
rfemur -24.642058168495517 -2.095035808090304 17.18095480638551
rtibia 53.82278307717863
rfoot -29.081170636494598 -17.034851131014854
rtoes -18.312053901443537
lfemur -26.28981215718652 2.495371418849336 -18.020257483207015
ltibia 54.197793633146475
lfoot -31.074195548875327 -3.4733648567017723
ltoes -20.001488418948494
58
root 0 0 0 1.201305971321749 -3.6380696107362165 1.8046005992164647
lowerback 11.908765099222151 0.8741690779981618 -0.045609702573001065
upperback -4.279674086135665 1.1069796895263577 -0.560994408452606
thorax -11.348996340548126 0.5067036601756087 -0.8184821342966699
lowerneck -6.141847783709084 1.529317140686042 4.506906926712532
upperneck 18.274976574150905 2.9935544798838687 -8.164496844354845
head 6.728169579902985 1.0937161289186506 -3.152570041199108
rclavicle 1.144278372457299E-15 -1.2042774328862819E-15
rhumerus 19.292595101024176 13.906045628017047 -48.42806730810991
rradius 71.67147447404882
rwrist 26.699351422611315
rhand -34.79088454212093 -56.48746129557236
rfingers 7.125020000000027
rthumb -7.927642408697281 -86.41183926580558
lclavicle 1.0115665178095587E-15 -1.85094610773455E-15
lhumerus 20.717646175704665 -12.224920159022133 44.94641200378645
lradius 69.71787375534876
lwrist -22.656171312952853
lhand -44.54509486384314 -69.59955929683781
lfingers 7.125020000000021
lthumb -17.37056102348178 -40.320960695529436
rfemur -24.642449527411415 -2.094840666958058 17.180254473289356
rtibia 53.82190496048608
rfoot -29.080054200688615 -17.03383214545963
rtoes -18.311734012010604
lfemur -26.287684178520635 2.4959938774777415 -18.01991786138717
ltibia 54.197068022022265
lfoot -31.073052583409552 -3.4717220678017617
ltoes -20.005649096078777
